<?xml version="1.0" ?><svg id="Layer_3" style="enable-background:new 0 0 64 64;" version="1.1" viewBox="0 0 64 64" xml:space="preserve" xmlns="http://www.w3.org/2000/svg" xmlns:xlink="http://www.w3.org/1999/xlink"><g><path d="M30,13c-9.374,0-17,7.626-17,17h2c0-8.271,6.729-15,15-15V13z"/><path d="M30,11V9C18.421,9,9,18.42,9,30h2C11,19.523,19.523,11,30,11z"/><path d="M19,30c0-6.065,4.935-11,11-11v-2c-7.168,0-13,5.832-13,13H19z"/><path d="M30,27c-1.654,0-3,1.346-3,3s1.346,3,3,3s3-1.346,3-3S31.654,27,30,27z M30,31c-0.552,0-1-0.449-1-1s0.448-1,1-1   s1,0.449,1,1S30.552,31,30,31z"/><path d="M60,31h-1v-5c0-1.322-0.375-2.556-1.015-3.612C56.564,17.154,53.742,12.59,50,9.029V5.414l3.293,3.293l1.414-1.414l-5-5   c-0.286-0.286-0.715-0.371-1.09-0.217C48.243,2.231,48,2.596,48,3v4.283C43,3.326,36.714,1,30,1C14.01,1,1,14.009,1,30   s13.01,29,29,29c5.252,0,10.302-1.392,14.717-4H49v6h-4v2h10v-2h-4v-6h5c3.859,0,7-3.14,7-7V34C63,32.346,61.654,31,60,31z M57,37   h-4v2h4v2h-4v2h4v1c0,0.342-0.035,0.677-0.101,1H53v2h2.974c-0.914,1.207-2.348,2-3.974,2h-6c-1.627,0-3.061-0.793-3.974-2H45v-2   h-3.899C41.035,44.677,41,44.342,41,44v-1h4v-2h-4v-2h4v-2h-4v-2h4v-2h-4v-2h4v-2h-4v-2h16v2h-4v2h4v2h-4v2h4V37z M42,53   c-2.757,0-5-2.243-5-5V34c0-0.551,0.448-1,1-1h1v11c0,3.86,3.141,7,7,7h0.971c-0.903,0.732-1.849,1.396-2.828,2H42z M56.899,25H54   v-3.576C55.468,22.068,56.571,23.393,56.899,25z M52,25h-2v-4h2V25z M48,25h-2v-4h2V25z M44,25h-2.899   c0.328-1.607,1.431-2.932,2.899-3.576V25z M3,30C3,15.112,15.112,3,30,3c6.818,0,13.169,2.569,18,6.884v0.3   C47.686,10.072,47.352,10,47,10c-1.654,0-3,1.346-3,3s1.346,3,3,3s3-1.346,3-3v-1.119c2.049,2.257,3.721,4.874,4.922,7.766   C54.031,19.236,53.044,19,52,19h-6c-3.859,0-7,3.14-7,7v5h-1c-1.654,0-3,1.346-3,3v14c0,3.369,2.393,6.189,5.569,6.852   C37.267,56.256,33.689,57,30,57C15.112,57,3,44.888,3,30z M48,13c0,0.551-0.448,1-1,1s-1-0.449-1-1s0.448-1,1-1S48,12.449,48,13z    M61,48c0,2.757-2.243,5-5,5h-8.344c0.807-0.622,1.587-1.288,2.334-2H52c3.859,0,7-3.14,7-7V33h1c0.552,0,1,0.449,1,1V48z"/><path d="M17.617,35.076C17.243,35.231,17,35.596,17,36v7.184C16.686,43.072,16.352,43,16,43c-1.654,0-3,1.346-3,3s1.346,3,3,3   s3-1.346,3-3v-7.586l3.293,3.293l1.414-1.414l-5-5C18.421,35.007,17.992,34.922,17.617,35.076z M16,47c-0.552,0-1-0.449-1-1   s0.448-1,1-1s1,0.449,1,1S16.552,47,16,47z"/><path d="M37.795,25.5C36.19,22.724,33.203,21,30,21c-4.963,0-9,4.038-9,9s4.037,9,9,9v-2c-3.859,0-7-3.14-7-7s3.141-7,7-7   c2.491,0,4.815,1.341,6.064,3.5L37.795,25.5z"/></g></svg>